<svg xmlns="http://www.w3.org/2000/svg" viewBox="0 0 240 72" role="img" aria-labelledby="title">
  <title>ANKER</title>
  <path fill="#00A7E1" d="M27.5 6h17.2l34.3 60H61.6l-7-13.1H17.4l-7 13.1H-6L27.5 6Zm8.5 17.5L24.8 44.2h22.4L36 23.5ZM89 6h14.8l34.1 39.9V6h16.4v60h-14.1L105.4 25v41H89V6Zm81.7 0h16.4v25.5L211.3 6h20.5l-25.1 25.6L233 66h-20.2L195 42.8l-7.9 8.1V66h-16.4V6Zm71.8 0h48.7v14.6h-32.4v9.3h29.4v13.6h-29.4v8.9h32.8V66h-49.1V6Zm61.4 0h29.2c9.4 0 15.9 2.5 20 6.6 3.6 3.5 5.5 8.3 5.5 14.5v.2c0 9.5-5 15.8-12.5 19.1L360 66h-18.9l-11.7-17h-9.1v17h-16.4V6Zm28.5 30.1c5.5 0 8.7-2.7 8.7-6.9V29c0-4.6-3.4-6.9-8.8-6.9h-11.9v14h12Z"/>
</svg>
