<svg xmlns="http://www.w3.org/2000/svg" viewBox="0 0 180 72" role="img" aria-labelledby="title">
  <title>eufy</title>
  <rect width="180" height="72" rx="16" fill="#1D6E9B"/>
  <path fill="#fff" d="M35.7 47.6c-7.3 0-12.7-5.3-12.7-12.4 0-7 5.4-12.5 12.3-12.5 4.7 0 7.7 1.7 10.5 4.4l-4.1 4.5c-1.9-1.8-3.8-3-6.5-3-3.7 0-6.6 3.2-6.6 6.9 0 4 2.8 7 7 7 2.7 0 4.7-1.1 6.8-3.1l4.1 4c-3.1 3.3-6.3 5.2-10.8 5.2Zm28.8-.1c-6.9 0-11.7-4.8-11.7-12.1V23.3h5.9V35c0 4 2 6.2 5.8 6.2 3.8 0 5.8-2.1 5.8-6.1V23.3h5.9v12c0 7.4-4.8 12.2-11.7 12.2Zm24.7-.4V23.3h17.4v5.4H95.1v4.4h10.2v5.3H95.1v8.7h-5.9Zm28.5 0V38L108 23.3h6.9l5.8 9.3 5.9-9.3h6.8l-9.9 14.7v9.1h-5.8Z"/>
</svg>
