<svg xmlns="http://www.w3.org/2000/svg" viewBox="0 0 260 72" role="img" aria-labelledby="title">
  <title>soundcore</title>
  <path fill="#00A8E8" d="M19.5 53.2C9 53.2 2 48.2 0 40.8l14.2-2.2c1.2 3.5 4.2 5.2 7.8 5.2 3.4 0 5.4-1.1 5.4-3.2v-.1c0-2.1-1.9-3.1-8-4.3C7.3 33.9 1.4 29.8 1.4 20v-.1C1.4 9.7 9.6 2.8 22 2.8c9.4 0 16.3 3.7 20 10.8L29.2 18c-1.4-2.8-3.8-4.2-7.1-4.2-3 0-4.5 1.3-4.5 3v.1c0 2.2 1.7 3.1 7.7 4.3 13 2.6 18.3 7 18.3 16v.1c0 11.2-8.8 15.9-24.1 15.9Zm54.6 0c-15.4 0-26.6-11-26.6-25v-.1c0-13.9 11.3-25.1 26.7-25.1 15.4 0 26.6 11 26.6 25v.1c0 13.9-11.3 25.1-26.7 25.1Zm.1-13.9c6.2 0 10.8-4.9 10.8-11.1v-.1c0-6.3-4.7-11.2-10.9-11.2-6.3 0-10.9 4.9-10.9 11.1v.1c0 6.3 4.7 11.2 11 11.2Zm58.2 13.8c-14.4 0-24.2-8.7-24.2-25.2V4.1h16.8v23.5c0 6.1 3.1 9 7.6 9 4.6 0 7.6-2.8 7.6-8.6V4.1H157v23.4c0 17.1-9.7 25.6-24.6 25.6Zm32.9-49h15.3l17.3 22.2V4.1h16.3V52h-14.5l-18.1-23.1V52h-16.3V4.1Zm82.6 47.9h-19.1V4.1h19c17.2 0 27.2 9.8 27.2 23.7v.1c0 13.8-10.1 24.1-27.1 24.1Zm.2-33.6h-3.5v19.2h3.5c7 0 11.7-3.8 11.7-9.5V28c0-5.6-4.7-9.6-11.7-9.6Z"/>
</svg>
